<svg width="63" height="62" viewBox="0 0 63 62" fill="none" xmlns="http://www.w3.org/2000/svg">
<g id="icon">
<rect x="2.5" y="2" width="58" height="58" rx="29" fill="#D82F12"/>
<g id="Vector">
<path d="M46.9888 24.2231C47.2536 23.0435 46.4359 21.8931 45.2319 21.7844C41.9752 21.4905 35.8845 21 31.5 21C27.1846 21 21.2163 21.4751 17.9242 21.7704C16.6683 21.883 15.84 23.1228 16.182 24.3364C16.921 26.9588 18.0541 31.2685 18.5 34.5C18.9178 37.5275 19.0199 41.6929 19.0398 44.2668C19.0493 45.4993 20.1426 46.4566 21.3656 46.3031C23.9939 45.9731 28.3175 45.5 31.5 45.5C34.7436 45.5 39.1723 45.9914 41.7838 46.3219C42.9546 46.47 44.0165 45.5962 44.091 44.4184C44.2528 41.861 44.5638 37.5937 45 34.5C45.4587 31.2461 46.4011 26.8416 46.9888 24.2231Z" fill="#FF9E8D"/>
<path d="M45.5252 23.8946C45.5967 23.5762 45.3753 23.3035 45.097 23.2783C41.8387 22.9842 35.8092 22.5 31.5 22.5C27.2592 22.5 21.3514 22.969 18.0581 23.2644C17.7667 23.2905 17.5306 23.5917 17.6258 23.9296L16.182 24.3364L17.6258 23.9296C18.365 26.5526 19.5245 30.9508 19.9859 34.295C20.4183 37.4283 20.5198 41.6802 20.5398 44.2552C20.5424 44.59 20.8468 44.8564 21.1787 44.8148C23.8078 44.4847 28.2142 44 31.5 44C34.848 44 39.3608 44.5033 41.9721 44.8338C42.2886 44.8738 42.5744 44.6335 42.594 44.3237C42.7558 41.766 43.0696 37.4473 43.5147 34.2906C43.9828 30.9706 44.9375 26.5133 45.5252 23.8946Z" stroke="#FFE2D2" stroke-width="3" stroke-linecap="round" stroke-linejoin="round"/>
</g>
<g id="Vector_2">
<mask id="path-4-inside-1_77_4725" fill="white">
<path d="M22.5 24C22.5 18.4775 26.5295 14 31.5 14C36.4705 14 40.5 18.4775 40.5 24"/>
</mask>
<path d="M25.5 24C25.5 25.6569 24.1569 27 22.5 27C20.8431 27 19.5 25.6569 19.5 24H25.5ZM43.5 24C43.5 25.6569 42.1569 27 40.5 27C38.8431 27 37.5 25.6569 37.5 24H43.5ZM19.5 24C19.5 17.1258 24.5832 11 31.5 11V17C28.4759 17 25.5 19.8292 25.5 24H19.5ZM31.5 11C38.4168 11 43.5 17.1258 43.5 24H37.5C37.5 19.8292 34.5241 17 31.5 17V11Z" fill="#FFE2D2" mask="url(#path-4-inside-1_77_4725)"/>
</g>
<path id="Vector_3" d="M36 32C35.1716 32 34.5 31.3284 34.5 30.5C34.5 29.6716 35.1716 29 36 29C36.8284 29 37.5 29.6716 37.5 30.5C37.5 31.3284 36.8284 32 36 32Z" fill="#FFE2D2"/>
<path id="Vector_4" d="M36.5 35C36.5 35 35 38 32 38C29 38 27.5 35 27.5 35" stroke="#FFE2D2" stroke-width="2" stroke-linecap="round" stroke-linejoin="round"/>
<path id="Vector_5" d="M27 32C26.1716 32 25.5 31.3284 25.5 30.5C25.5 29.6716 26.1716 29 27 29C27.8284 29 28.5 29.6716 28.5 30.5C28.5 31.3284 27.8284 32 27 32Z" fill="#FFE2D2"/>
<rect x="2.5" y="2" width="58" height="58" rx="29" stroke="#FFE2D2" stroke-width="4"/>
</g>
</svg>
