<svg width="24" height="24" viewBox="0 0 24 24" fill="none" xmlns="http://www.w3.org/2000/svg">
<g id="Frame" clip-path="url(#clip0_77_4713)">
<path id="Vector" d="M19.5 13.5717L12 20.9997L4.5 13.5717M4.5 13.5717C4.0053 13.0903 3.61564 12.5117 3.35554 11.8723C3.09545 11.2329 2.97056 10.5466 2.98873 9.85662C3.00691 9.1666 3.16776 8.48782 3.46115 7.86303C3.75455 7.23823 4.17413 6.68094 4.69348 6.22627C5.21283 5.77159 5.8207 5.42938 6.47881 5.22117C7.13691 5.01296 7.831 4.94327 8.51737 5.01649C9.20373 5.08971 9.8675 5.30425 10.4669 5.64659C11.0662 5.98894 11.5882 6.45169 12 7.00569C12.4135 6.45571 12.9361 5.99701 13.5351 5.65829C14.1341 5.31958 14.7965 5.10814 15.4809 5.03721C16.1654 4.96628 16.8571 5.03739 17.5128 5.24608C18.1685 5.45477 18.774 5.79656 19.2916 6.25005C19.8091 6.70354 20.2274 7.25897 20.5204 7.88158C20.8134 8.50419 20.9747 9.18057 20.9943 9.8684C21.0139 10.5562 20.8913 11.2407 20.6341 11.8789C20.377 12.5172 19.9909 13.0955 19.5 13.5777" stroke="#9F9F9F" stroke-width="1.5" stroke-linecap="round" stroke-linejoin="round"/>
</g>
<defs>
<clipPath id="clip0_77_4713">
<rect width="24" height="24" fill="white"/>
</clipPath>
</defs>
</svg>
